<svg width="980" height="350" viewBox="0 0 980 350" fill="none" xmlns="http://www.w3.org/2000/svg" font-family="-apple-system,'Segoe UI',Helvetica,Arial,sans-serif">
  <defs>
    <linearGradient id="bg3" x1="0" y1="0" x2="980" y2="350" gradientUnits="userSpaceOnUse">
      <stop offset="0" stop-color="#0d1117"/>
      <stop offset="1" stop-color="#0f1722"/>
    </linearGradient>
    <filter id="soft3" x="-20%" y="-20%" width="140%" height="140%">
      <feDropShadow dx="0" dy="2" stdDeviation="6" flood-color="#000000" flood-opacity="0.45"/>
    </filter>
    <marker id="aGrey3" viewBox="0 0 10 10" refX="8" refY="5" markerWidth="7" markerHeight="7" orient="auto-start-reverse">
      <path d="M0,0 L10,5 L0,10 z" fill="#8b949e"/>
    </marker>
    <marker id="aBlue3" viewBox="0 0 10 10" refX="8" refY="5" markerWidth="7" markerHeight="7" orient="auto-start-reverse">
      <path d="M0,0 L10,5 L0,10 z" fill="#58a6ff"/>
    </marker>
    <marker id="aGreen3" viewBox="0 0 10 10" refX="8" refY="5" markerWidth="7" markerHeight="7" orient="auto-start-reverse">
      <path d="M0,0 L10,5 L0,10 z" fill="#3fb950"/>
    </marker>
    <style>
      .flow3 { stroke-dasharray: 6 7; animation: dash3 1.6s linear infinite; }
      @keyframes dash3 { to { stroke-dashoffset: -13; } }
      .spin { animation: spin 14s linear infinite; transform-origin: 700px 178px; }
      @keyframes spin { to { transform: rotate(360deg); } }
      .t3 { fill: #e6edf3; } .s3 { fill: #8b949e; }
    </style>
  </defs>

  <rect x="1" y="1" width="978" height="348" rx="16" fill="url(#bg3)" stroke="#30363d"/>

  <text x="490" y="42" text-anchor="middle" font-size="19" font-weight="700" class="t3">Python owns the structure — the model only ever picks the next step</text>
  <text x="490" y="64" text-anchor="middle" font-size="12" class="s3">OpenProgram next-step decision: every routing point is a typed menu, parsed, validated, retried, executed by code</text>

  <!-- task input -->
  <g filter="url(#soft3)">
    <rect x="36" y="150" width="118" height="56" rx="28" fill="#0f2030" stroke="#58a6ff" stroke-width="1.3"/>
    <text x="95" y="174" text-anchor="middle" font-size="12.5" font-weight="600" fill="#58a6ff">your task</text>
    <text x="95" y="191" text-anchor="middle" font-size="10" class="s3">one sentence</text>
  </g>
  <line x1="154" y1="178" x2="208" y2="178" stroke="#8b949e" stroke-width="1.6" marker-end="url(#aGrey3)" class="flow3"/>

  <!-- LEVEL 1 -->
  <g filter="url(#soft3)">
    <rect x="212" y="106" width="240" height="144" rx="14" fill="#161b22" stroke="#30363d"/>
    <text x="236" y="136" font-size="13.5" font-weight="700" fill="#58a6ff">LEVEL 1 · pick a stage</text>
    <text x="236" y="160" font-size="11" class="s3">the model sees 10 stages + done,</text>
    <text x="236" y="176" font-size="11" class="s3">replies with one choice + sub-task</text>
    <g>
      <rect x="236" y="192" width="56" height="22" rx="6" fill="#0f2030" stroke="#1f3354"/>
      <text x="264" y="207" text-anchor="middle" font-size="10" fill="#58a6ff">literature</text>
      <rect x="298" y="192" width="44" height="22" rx="6" fill="#0f2030" stroke="#1f3354"/>
      <text x="320" y="207" text-anchor="middle" font-size="10" fill="#58a6ff">writing</text>
      <rect x="348" y="192" width="42" height="22" rx="6" fill="#0f2030" stroke="#1f3354"/>
      <text x="369" y="207" text-anchor="middle" font-size="10" fill="#58a6ff">review</text>
      <rect x="396" y="192" width="34" height="22" rx="6" fill="#10231a" stroke="#1f4030"/>
      <text x="413" y="207" text-anchor="middle" font-size="10" fill="#3fb950">…+7</text>
    </g>
    <text x="236" y="236" font-size="10.5" class="s3">unparseable pick → 1 retry → loud failure</text>
  </g>

  <line x1="452" y1="150" x2="540" y2="150" stroke="#8b949e" stroke-width="1.6" marker-end="url(#aGrey3)" class="flow3"/>
  <text x="496" y="142" text-anchor="middle" font-size="10.5" class="s3">stage + sub-task</text>
  <line x1="540" y1="206" x2="452" y2="206" stroke="#8b949e" stroke-width="1.6" marker-end="url(#aGrey3)" class="flow3"/>
  <text x="496" y="224" text-anchor="middle" font-size="10.5" class="s3">stage_done</text>
  <text x="496" y="238" text-anchor="middle" font-size="10.5" class="s3">+ progress</text>

  <!-- LEVEL 2 -->
  <g filter="url(#soft3)">
    <rect x="544" y="86" width="312" height="184" rx="14" fill="#161b22" stroke="#30363d"/>
    <text x="568" y="116" font-size="13.5" font-weight="700" fill="#bc8cf2">LEVEL 2 · work the stage</text>
    <!-- inner cycle -->
    <g class="spin" opacity="0.9">
      <circle cx="700" cy="178" r="46" stroke="#3d2e52" stroke-width="1.5" fill="none" stroke-dasharray="5 6"/>
      <path d="M 700 132 l 6 7 l -10 2 z" fill="#bc8cf2"/>
      <path d="M 700 224 l -6 -7 l 10 -2 z" fill="#bc8cf2"/>
    </g>
    <g filter="url(#soft3)">
      <rect x="608" y="120" width="184" height="32" rx="9" fill="#1d1530" stroke="#bc8cf2" stroke-width="1.2"/>
      <text x="700" y="141" text-anchor="middle" font-size="11.5" fill="#bc8cf2">model picks one function</text>
    </g>
    <g filter="url(#soft3)">
      <rect x="608" y="204" width="184" height="32" rx="9" fill="#10231a" stroke="#3fb950" stroke-width="1.2"/>
      <text x="700" y="225" text-anchor="middle" font-size="11.5" fill="#3fb950">Python executes it</text>
    </g>
    <text x="700" y="183" text-anchor="middle" font-size="10" class="s3">args validated ·</text>
    <text x="700" y="196" text-anchor="middle" font-size="10" class="s3">runtime injected</text>
    <text x="568" y="256" font-size="10.5" class="s3">same call, same args, 5× in a row? → stage cut off</text>
  </g>

  <!-- done -> result -->
  <path d="M 332 250 C 332 300 420 306 470 306" stroke="#3fb950" stroke-width="1.6" fill="none" class="flow3"/>
  <line x1="470" y1="306" x2="744" y2="306" stroke="#3fb950" stroke-width="1.6" marker-end="url(#aGreen3)" class="flow3"/>
  <text x="384" y="296" font-size="10.5" fill="#3fb950">done</text>
  <g filter="url(#soft3)">
    <rect x="748" y="284" width="196" height="44" rx="22" fill="#0f2417" stroke="#3fb950" stroke-width="1.3"/>
    <text x="846" y="303" text-anchor="middle" font-size="12" font-weight="600" fill="#3fb950">artifacts + OPERATION_LOG.md</text>
    <text x="846" y="319" text-anchor="middle" font-size="10" class="s3">every decision on the record</text>
  </g>

  <text x="36" y="318" font-size="10.5" class="s3">interactive functions are hidden from these menus</text>
</svg>
